<svg xmlns="http://www.w3.org/2000/svg" viewBox="0 0 12 12" shape-rendering="crispEdges">
  <!-- Drawn by packaging/icon/build-icons.mjs; change the sprite there. -->
  <g fill="#A8492F"><rect x="8" y="0" width="3" height="1"/><rect x="7" y="1" width="5" height="1"/><rect x="3" y="2" width="4" height="1"/><rect x="8" y="2" width="1" height="1"/><rect x="10" y="2" width="2" height="1"/><rect x="2" y="3" width="7" height="1"/><rect x="10" y="3" width="2" height="1"/><rect x="11" y="4" width="1" height="1"/></g>
  <g fill="#B8336A"><rect x="7" y="2" width="1" height="1"/></g>
  <g fill="#D77757"><rect x="2" y="4" width="8" height="1"/><rect x="2" y="5" width="1" height="1"/><rect x="4" y="5" width="4" height="1"/><rect x="9" y="5" width="1" height="1"/><rect x="0" y="6" width="12" height="1"/><rect x="0" y="7" width="12" height="1"/><rect x="2" y="8" width="8" height="1"/><rect x="2" y="9" width="8" height="1"/><rect x="2" y="10" width="1" height="1"/><rect x="4" y="10" width="1" height="1"/><rect x="7" y="10" width="1" height="1"/><rect x="9" y="10" width="1" height="1"/><rect x="2" y="11" width="1" height="1"/><rect x="4" y="11" width="1" height="1"/><rect x="7" y="11" width="1" height="1"/><rect x="9" y="11" width="1" height="1"/></g>
  <g fill="#141413"><rect x="3" y="5" width="1" height="1"/><rect x="8" y="5" width="1" height="1"/></g>
</svg>
